<svg xmlns="http://www.w3.org/2000/svg" viewBox="0 0 16.22 29.95"><defs><style>.cls-1{isolation:isolate;}.cls-2{fill:#252525;}.cls-3{fill:#ea112e;}.cls-4{fill:#b32a2e;mix-blend-mode:multiply;opacity:0.35;}.cls-5{fill:#3c3c3c;}.cls-6{fill:#e2e4dd;}.cls-7{fill:#ff9a0b;}.cls-8{fill:#ff6d2c;}.cls-9{fill:#bc1406;}</style></defs><g class="cls-1"><g id="katman_2" data-name="katman 2"><g id="katman_1-2" data-name="katman 1"><path class="cls-2" d="M13.25,1A14.79,14.79,0,0,0,8.09,0,14.79,14.79,0,0,0,2.93,1C1.77,1.4.77,1.58.77,2.14v1c.27.11.28-.37.57-.6A6.66,6.66,0,0,1,2.93,2,14.35,14.35,0,0,1,13.25,2a6.57,6.57,0,0,1,1.58.57c.3.23.3.71.58.6v-1C15.41,1.58,14.41,1.4,13.25,1Z"/><path class="cls-3" d="M15.27,16.37V3.12c0-.55-.88-.87-2-1.3A14.55,14.55,0,0,0,8.11.93,14.55,14.55,0,0,0,3,1.82c-1.15.43-2,.75-2,1.3V16.37c0,3.31,0,11.89.44,12.54s1.49,1,6.72,1,6.26-.39,6.73-1S15.27,19.68,15.27,16.37Z"/><path class="cls-4" d="M13.24,1.63A14.83,14.83,0,0,0,8.11.69,14.83,14.83,0,0,0,3,1.63l-.39.16C3,3.45,4.15,7.93,4.44,7.94a22.81,22.81,0,0,1,3.67-.47,22.62,22.62,0,0,1,3.67.47c.29,0,1.43-4.49,1.85-6.15Z"/><path class="cls-5" d="M5.57,8.07a8,8,0,0,0-2.83,1A22.41,22.41,0,0,0,4.31,12.5a29.77,29.77,0,0,1,3.8-.4,29.77,29.77,0,0,1,3.8.4,22.41,22.41,0,0,0,1.57-3.42,7.85,7.85,0,0,0-2.83-1A13.16,13.16,0,0,0,5.57,8.07Z"/><polygon class="cls-5" points="13.76 9.36 12.34 13.02 12.34 17.26 13.79 16.76 13.76 9.36"/><polygon class="cls-5" points="12.34 22.07 13.76 25.77 13.79 17.26 12.34 17.8 12.34 22.07"/><polygon class="cls-5" points="2.47 9.36 3.88 13.02 3.88 17.26 2.44 16.76 2.47 9.36"/><polygon class="cls-5" points="3.88 22.07 2.47 25.77 2.44 17.26 3.88 17.8 3.88 22.07"/><path class="cls-5" d="M11.13,23.31l-1.48.13a19.67,19.67,0,0,1-3.07,0l-1.49-.13L3.78,26.12a37.67,37.67,0,0,0,4.33.36,37.7,37.7,0,0,0,4.34-.36Z"/><path class="cls-6" d="M13.24,1.63a15,15,0,0,0-1.7-.51,1.93,1.93,0,0,0,.2.92c.3.46,2.41,1.1,2.64.12A7.15,7.15,0,0,0,13.24,1.63Z"/><path class="cls-6" d="M3,1.63a7,7,0,0,0-1.13.53c.22,1,2.33.34,2.63-.12a2,2,0,0,0,.21-.92A14.59,14.59,0,0,0,3,1.63Z"/><path class="cls-7" d="M13.69,1.82l-.21.86a15.85,15.85,0,0,0,1.79.52V3.12C15.27,2.65,14.61,2.21,13.69,1.82Z"/><path class="cls-7" d="M2.74,2.68l-.21-.86C1.62,2.21,1,2.65,1,3.12V3.2A15.14,15.14,0,0,0,2.74,2.68Z"/><path class="cls-8" d="M2.62,28.29a3.72,3.72,0,0,0-1.44-.43,3.1,3.1,0,0,0,.21,1.05,2.15,2.15,0,0,0,1.52.75A4.58,4.58,0,0,0,2.62,28.29Z"/><path class="cls-9" d="M4.8,28.76s-1.93-.45-2.36-.59a10.1,10.1,0,0,0,.15,1.42,12.73,12.73,0,0,0,2.19.28A3.71,3.71,0,0,0,4.8,28.76Z"/><path class="cls-8" d="M13.63,28.29a3.72,3.72,0,0,1,1.44-.43,2.86,2.86,0,0,1-.21,1.05,2.15,2.15,0,0,1-1.51.75A4.3,4.3,0,0,1,13.63,28.29Z"/><path class="cls-9" d="M11.45,28.76s1.93-.45,2.37-.59a12,12,0,0,1-.15,1.42,13,13,0,0,1-2.2.28A3.71,3.71,0,0,1,11.45,28.76Z"/><path class="cls-3" d="M13.79,10.84c.56,0,2.41.28,2.41.28s.09-.18-.08-.55a9.16,9.16,0,0,0-2.33-1.22Z"/><path class="cls-3" d="M2.44,10.84c-.57,0-2.42.28-2.42.28a.74.74,0,0,1,.08-.55A9.22,9.22,0,0,1,2.44,9.35Z"/></g></g></g></svg>